<?xml version="1.0"?>
<svg xmlns="http://www.w3.org/2000/svg" viewBox="0 0 64 64" width="512" height="512"><g id="Filled_outline" data-name="Filled outline"><path d="M50,30c0,12.7-8.059,19-18,19S14,42.7,14,30,22.059,3,32,3,50,17.3,50,30Z" style="fill:#ffd782"/><path d="M13,49H51a6,6,0,0,1,6,6v6a0,0,0,0,1,0,0H7a0,0,0,0,1,0,0V55A6,6,0,0,1,13,49Z" style="fill:#c87e7d"/><circle cx="28" cy="41" r="3" style="fill:#f3bb59"/><circle cx="40" cy="36" r="4" style="fill:#f3bb59"/><circle cx="41" cy="23" r="3" style="fill:#f3bb59"/><circle cx="30" cy="30" r="2" style="fill:#f3bb59"/><path d="M21.984,19.179l-1.968-.358c1.1-6.033,4.243-9.2,6.689-10.785a13.109,13.109,0,0,1,5.185-2.03l.22,1.988L32,7l.114.993C31.776,8.033,23.819,9.085,21.984,19.179Z" style="fill:#f3bb59"/><path d="M11,39h6A10,10,0,0,1,27,49v0a0,0,0,0,1,0,0H21A10,10,0,0,1,11,39v0A0,0,0,0,1,11,39Z" style="fill:#4da19a"/><path d="M47,39h6a0,0,0,0,1,0,0v0A10,10,0,0,1,43,49H37a0,0,0,0,1,0,0v0A10,10,0,0,1,47,39Z" transform="translate(90 88) rotate(-180)" style="fill:#4da19a"/><rect x="10" y="56" width="6" height="2" style="fill:#ffd782"/><rect x="17" y="52" width="6" height="2" style="fill:#ffd782"/><rect x="28" y="54" width="7" height="2" style="fill:#ffd782"/><rect x="38" y="52" width="2" height="2" style="fill:#ffd782"/><rect x="22" y="56" width="2" height="2" style="fill:#ffd782"/><rect x="47" y="52" width="4" height="2" style="fill:#ffd782"/><rect x="43" y="56" width="2" height="2" style="fill:#ffd782"/><path d="M51,48h-1.7A10.99,10.99,0,0,0,54,39V38H49.728A24.427,24.427,0,0,0,51,30C51,17.052,42.7,2,32,2S13,17.052,13,30a24.427,24.427,0,0,0,1.272,8H10v1a10.99,10.99,0,0,0,4.7,9H13a7.008,7.008,0,0,0-7,7v7H58V55A7.008,7.008,0,0,0,51,48Zm-8,0H38.055A9.013,9.013,0,0,1,47,40h4.945A9.013,9.013,0,0,1,43,48Zm-3-9a3,3,0,1,1,3-3A3,3,0,0,1,40,39ZM15,30C15,18.224,22.583,4,32,4S49,18.224,49,30a21.922,21.922,0,0,1-1.4,8H47a10.973,10.973,0,0,0-2.6.323A4.933,4.933,0,0,0,45,36a5,5,0,1,0-5.474,4.952A10.965,10.965,0,0,0,36.1,47.585a21.052,21.052,0,0,1-8.2,0,10.882,10.882,0,0,0-.691-2.665,4,4,0,1,0-3.163-4.358A10.946,10.946,0,0,0,17,38h-.6A21.922,21.922,0,0,1,15,30ZM26,41a2,2,0,1,1,2,2A2,2,0,0,1,26,41ZM12.055,40H17a9.013,9.013,0,0,1,8.945,8H21A9.013,9.013,0,0,1,12.055,40ZM56,60H8V55a5.006,5.006,0,0,1,5-5H51a5.006,5.006,0,0,1,5,5Z"/><path d="M41,27a4,4,0,1,0-4-4A4,4,0,0,0,41,27Zm0-6a2,2,0,1,1-2,2A2,2,0,0,1,41,21Z"/><path d="M27,30a3,3,0,1,0,3-3A3,3,0,0,0,27,30Zm4,0a1,1,0,1,1-1-1A1,1,0,0,1,31,30Z"/><path d="M32.114,7.993,32,7l-.11-.994a13.109,13.109,0,0,0-5.185,2.03c-2.446,1.59-5.592,4.752-6.689,10.785l1.968.358C23.819,9.085,31.776,8.033,32.114,7.993Z"/><rect x="10" y="56" width="6" height="2"/><rect x="17" y="52" width="6" height="2"/><rect x="28" y="54" width="7" height="2"/><rect x="38" y="52" width="2" height="2"/><rect x="22" y="56" width="2" height="2"/><rect x="47" y="52" width="4" height="2"/><rect x="43" y="56" width="2" height="2"/></g></svg>
