<?xml version="1.0"?>
<svg xmlns="http://www.w3.org/2000/svg" viewBox="0 0 64 64" width="512" height="512"><g id="Filled_outline" data-name="Filled outline"><path d="M45,20V7H19V20A10,10,0,0,0,29,30v4A10,10,0,0,0,19,44V57H45V44A10,10,0,0,0,35,34V30A10,10,0,0,0,45,20Z" style="fill:#ffd782"/><path d="M32,13c-7.18,0-13,1.343-13,3v4A10,10,0,0,0,29,30h6A10,10,0,0,0,45,20V16C45,14.343,39.18,13,32,13Z" style="fill:#e97424"/><rect x="19" y="47" width="26" height="10" style="fill:#e97424"/><rect x="15" y="3" width="34" height="4" style="fill:#f1c056"/><rect x="15" y="57" width="34" height="4" style="fill:#f1c056"/><ellipse cx="32" cy="16" rx="13" ry="3" style="fill:#f1c056"/><rect x="31" y="36" width="2" height="2" style="fill:#e97424"/><rect x="35" y="38" width="2" height="2" style="fill:#e97424"/><rect x="23" y="51" width="2" height="2" style="fill:#fff"/><rect x="31" y="42" width="2" height="2" style="fill:#e97424"/><rect x="12" y="30" width="2" height="2" style="fill:#e97424"/><rect x="12" y="34" width="2" height="2" style="fill:#e97424"/><rect x="10" y="32" width="2" height="2" style="fill:#e97424"/><rect x="14" y="32" width="2" height="2" style="fill:#e97424"/><rect x="7" y="13" width="2" height="2" style="fill:#e97424"/><rect x="7" y="17" width="2" height="2" style="fill:#e97424"/><rect x="5" y="15" width="2" height="2" style="fill:#e97424"/><rect x="9" y="15" width="2" height="2" style="fill:#e97424"/><rect x="56" y="41" width="2" height="2" style="fill:#e97424"/><rect x="56" y="45" width="2" height="2" style="fill:#e97424"/><rect x="58" y="43" width="2" height="2" style="fill:#e97424"/><rect x="54" y="43" width="2" height="2" style="fill:#e97424"/><rect x="50" y="25" width="2" height="2" style="fill:#e97424"/><rect x="50" y="29" width="2" height="2" style="fill:#e97424"/><rect x="52" y="27" width="2" height="2" style="fill:#e97424"/><rect x="48" y="27" width="2" height="2" style="fill:#e97424"/><rect x="31" y="36" width="2" height="2"/><rect x="35" y="38" width="2" height="2"/><path d="M46,44A11.015,11.015,0,0,0,36,33.045v-2.09A11.015,11.015,0,0,0,46,20V8h4V2H14V8h4V20A11.015,11.015,0,0,0,28,30.955v2.09A11.015,11.015,0,0,0,18,44V56H14v6H50V56H46ZM16,4H48V6H16ZM44,8v5.729C40.394,12.063,33.073,12,32,12s-8.394.063-12,1.729V8Zm-.055,8c-.717.767-5.015,2-11.945,2s-11.228-1.233-11.945-2c.717-.767,5.015-2,11.945-2S43.228,15.233,43.945,16ZM20,20V18.271C23.606,19.937,30.927,20,32,20s8.394-.063,12-1.729V20a9.01,9.01,0,0,1-9,9H29A9.01,9.01,0,0,1,20,20Zm9,15a1,1,0,0,0,1-1V31h4v3a1,1,0,0,0,1,1,9.01,9.01,0,0,1,9,9v2H20V44A9.01,9.01,0,0,1,29,35ZM20,48H44v8H20ZM48,60H16V58H48Z"/><rect x="23" y="51" width="2" height="2"/><rect x="31" y="42" width="2" height="2"/><rect x="12" y="30" width="2" height="2"/><rect x="12" y="34" width="2" height="2"/><rect x="10" y="32" width="2" height="2"/><rect x="14" y="32" width="2" height="2"/><rect x="7" y="13" width="2" height="2"/><rect x="7" y="17" width="2" height="2"/><rect x="5" y="15" width="2" height="2"/><rect x="9" y="15" width="2" height="2"/><rect x="56" y="41" width="2" height="2"/><rect x="56" y="45" width="2" height="2"/><rect x="58" y="43" width="2" height="2"/><rect x="54" y="43" width="2" height="2"/><rect x="50" y="25" width="2" height="2"/><rect x="50" y="29" width="2" height="2"/><rect x="52" y="27" width="2" height="2"/><rect x="48" y="27" width="2" height="2"/></g></svg>
