<?xml version="1.0"?>
<svg xmlns="http://www.w3.org/2000/svg" viewBox="0 0 64 64" width="512" height="512"><g id="Filled_outline" data-name="Filled outline"><path d="M37,61a59.449,59.449,0,0,1-3-19H31a69.4,69.4,0,0,0,1,19Z" style="fill:#3e8051"/><path d="M53,35c0,11.291-17,13-21,7-3,6-21,4.291-21-7S29,12,32,3C35,12,53,23.709,53,35Z" style="fill:#55b56a"/><rect x="18" y="39" width="2" height="2" style="fill:#c8d952"/><rect x="40" y="22" width="2" height="2" style="fill:#c8d952"/><path d="M13,19a4,4,0,0,1-4-4,1,1,0,0,0-2,0,4,4,0,0,1-4,4,1,1,0,0,0,0,2,4,4,0,0,1,4,4,1,1,0,0,0,2,0,4,4,0,0,1,4-4,1,1,0,0,0,0-2ZM8,21.69A6.044,6.044,0,0,0,6.31,20,6.044,6.044,0,0,0,8,18.31,6.044,6.044,0,0,0,9.69,20,6.044,6.044,0,0,0,8,21.69Z" style="fill:#c8d952"/><path d="M56,9a4,4,0,0,1-4-4,1,1,0,0,0-2,0,4,4,0,0,1-4,4,1,1,0,0,0,0,2,4,4,0,0,1,4,4,1,1,0,0,0,2,0,4,4,0,0,1,4-4,1,1,0,0,0,0-2Zm-5,2.69A6.044,6.044,0,0,0,49.31,10,6.044,6.044,0,0,0,51,8.31,6.044,6.044,0,0,0,52.69,10,6.044,6.044,0,0,0,51,11.69Z" style="fill:#c8d952"/><path d="M52,53a4,4,0,0,1-4-4,1,1,0,0,0-2,0,4,4,0,0,1-4,4,1,1,0,0,0,0,2,4,4,0,0,1,4,4,1,1,0,0,0,2,0,4,4,0,0,1,4-4,1,1,0,0,0,0-2Zm-5,2.69A6.044,6.044,0,0,0,45.31,54,6.044,6.044,0,0,0,47,52.31,6.044,6.044,0,0,0,48.69,54,6.044,6.044,0,0,0,47,55.69Z" style="fill:#c8d952"/><rect x="18" y="39" width="2" height="2"/><rect x="40" y="22" width="2" height="2"/><path d="M37.821,61.57a1,1,0,0,0,.116-.92A57.824,57.824,0,0,1,35.106,45.5a16.488,16.488,0,0,0,13.265-1.124A10.468,10.468,0,0,0,54,35c0-6.985-6.16-13.74-12.117-20.272-3.987-4.374-7.754-8.5-8.935-12.044a1,1,0,0,0-1.9,0c-1.181,3.54-4.948,7.67-8.935,12.044C16.16,21.26,10,28.015,10,35c0,4.343,2.423,7.84,6.823,9.849a17.862,17.862,0,0,0,7.3,1.565A13.33,13.33,0,0,0,29.8,45.259,71.427,71.427,0,0,0,31.02,61.2,1,1,0,0,0,32,62h5A1,1,0,0,0,37.821,61.57ZM31,17.78a6.081,6.081,0,0,1-2.293-1.487l-1.414,1.414A7.817,7.817,0,0,0,31,19.854v6.862A23.557,23.557,0,0,1,23.6,23.2l-1.2,1.6A25.727,25.727,0,0,0,31,28.79v8.046c-2.523-.438-8.86-1.854-13.359-5.6l-1.282,1.538c5.121,4.266,12.18,5.709,14.641,6.1v2.848a3.463,3.463,0,0,1-.766.918c-2.514,2.18-8.277,2.359-12.58.394C15.542,42.065,12,39.74,12,35c0-6.21,5.9-12.674,11.6-18.925A77.169,77.169,0,0,0,31,7.137Zm2,15.955c1.935-.635,7.292-2.613,10.707-6.028l-1.414-1.414c-2.772,2.772-7.147,4.563-9.293,5.324V22.753a14.922,14.922,0,0,0,5.707-3.046l-1.414-1.414A12.03,12.03,0,0,1,33,20.647V7.137a77.169,77.169,0,0,0,7.405,8.938C46.105,22.326,52,28.79,52,35a8.484,8.484,0,0,1-4.613,7.635c-3.892,2.2-9.532,2.369-12.841.378h0l0,0c-.106-.063-.2-.133-.3-.2,3.388-.482,9.8-2.194,13.608-8.28l-1.7-1.06C42.41,39.457,35.557,40.683,33,40.934ZM32.826,60a70.274,70.274,0,0,1-.96-16.186c.067-.066.134-.132.2-.2a7.6,7.6,0,0,0,.987.816A62.452,62.452,0,0,0,35.612,60Z"/><path d="M8,26a1,1,0,0,0,1-1,4,4,0,0,1,4-4,1,1,0,0,0,0-2,4,4,0,0,1-4-4,1,1,0,0,0-2,0,4,4,0,0,1-4,4,1,1,0,0,0,0,2,4,4,0,0,1,4,4A1,1,0,0,0,8,26Zm0-7.69A6.044,6.044,0,0,0,9.69,20,6.044,6.044,0,0,0,8,21.69,6.044,6.044,0,0,0,6.31,20,6.044,6.044,0,0,0,8,18.31Z"/><path d="M46,11a4,4,0,0,1,4,4,1,1,0,0,0,2,0,4,4,0,0,1,4-4,1,1,0,0,0,0-2,4,4,0,0,1-4-4,1,1,0,0,0-2,0,4,4,0,0,1-4,4,1,1,0,0,0,0,2Zm5-2.69A6.044,6.044,0,0,0,52.69,10,6.044,6.044,0,0,0,51,11.69,6.044,6.044,0,0,0,49.31,10,6.044,6.044,0,0,0,51,8.31Z"/><path d="M52,53a4,4,0,0,1-4-4,1,1,0,0,0-2,0,4,4,0,0,1-4,4,1,1,0,0,0,0,2,4,4,0,0,1,4,4,1,1,0,0,0,2,0,4,4,0,0,1,4-4,1,1,0,0,0,0-2Zm-5,2.69A6.044,6.044,0,0,0,45.31,54,6.044,6.044,0,0,0,47,52.31,6.044,6.044,0,0,0,48.69,54,6.044,6.044,0,0,0,47,55.69Z"/></g></svg>
