<?xml version="1.0" encoding="iso-8859-1"?>
<!-- Generator: Adobe Illustrator 19.0.0, SVG Export Plug-In . SVG Version: 6.00 Build 0)  -->
<svg version="1.1" id="Capa_1" xmlns="http://www.w3.org/2000/svg" xmlns:xlink="http://www.w3.org/1999/xlink" x="0px" y="0px"
	 viewBox="0 0 512 512" style="enable-background:new 0 0 512 512;" xml:space="preserve">
<g>
	<g transform="translate(1 1)">
		<path style="fill:#FFB301;" d="M502.467,101.314v153.6c-0.028,9.414-7.653,17.039-17.067,17.067H135.533V84.248H485.4
			C494.814,84.275,502.439,91.9,502.467,101.314z"/>
		<path style="fill:#FEC108;" d="M476.867,101.314v153.6c-0.028,9.414-7.653,17.039-17.067,17.067H135.533V84.248H459.8
			C469.214,84.275,476.839,91.9,476.867,101.314z"/>
		<g>
			<path style="fill:#F5F5F5;" d="M348.867,195.181h25.6c4.713,0,8.533,3.821,8.533,8.533v25.6c0,4.713-3.821,8.533-8.533,8.533
				h-25.6c-4.713,0-8.533-3.821-8.533-8.533v-25.6C340.333,199.001,344.154,195.181,348.867,195.181z"/>
			<path style="fill:#F5F5F5;" d="M434.2,195.181h25.6c4.713,0,8.533,3.821,8.533,8.533v25.6c0,4.713-3.82,8.533-8.533,8.533h-25.6
				c-4.713,0-8.533-3.821-8.533-8.533v-25.6C425.667,199.001,429.487,195.181,434.2,195.181z"/>
		</g>
		<path style="fill:#4CAF50;" d="M178.2,84.248v187.733H24.6c-9.414-0.028-17.039-7.652-17.067-17.067v-153.6
			C7.561,91.9,15.186,84.275,24.6,84.248H178.2z"/>
		<circle style="fill:#0377BC;" cx="255" cy="314.648" r="110.933"/>
		<ellipse style="fill:#02A9F4;" cx="242.2" cy="314.648" rx="98.133" ry="110.933"/>
	</g>
	<g>
		<path d="M486.4,76.714H25.6C11.468,76.73,0.015,88.182,0,102.314v153.6c0.015,14.132,11.468,25.585,25.6,25.6h115.965
			c-14.669,48.933,3.398,101.779,44.955,131.489c41.556,29.71,97.405,29.71,138.961,0c41.556-29.71,59.624-82.556,44.955-131.489
			H486.4c14.132-0.015,25.585-11.468,25.6-25.6v-153.6C511.985,88.182,500.532,76.73,486.4,76.714z M25.6,264.448
			c-4.71-0.006-8.527-3.823-8.533-8.533v-153.6c0.006-4.71,3.823-8.527,8.533-8.533h145.067v137.642
			c0,0.225,0.111,0.414,0.128,0.634c-9.262,9.476-16.888,20.421-22.57,32.391H25.6z M256,418.048
			c-56.554,0-102.4-45.846-102.4-102.4s45.846-102.4,102.4-102.4s102.4,45.846,102.4,102.4
			C358.335,372.175,312.527,417.983,256,418.048z M494.933,255.914c-0.006,4.71-3.823,8.527-8.533,8.533H363.776
			c-2.815-5.952-6.118-11.66-9.875-17.067h21.566c9.422-0.009,17.057-7.645,17.067-17.067v-25.6
			c-0.009-9.422-7.645-17.057-17.067-17.067h-25.6c-9.422,0.009-17.057,7.645-17.067,17.067v19.555
			c-41.264-34.864-100.841-37.543-145.067-6.522V93.781H486.4c4.71,0.006,8.527,3.823,8.533,8.533V255.914z M349.867,230.314v-25.6
			h25.6l0.012,25.6H349.867z"/>
		<path d="M221.867,110.848h-8.533c-4.713,0-8.533,3.821-8.533,8.533s3.82,8.533,8.533,8.533h8.533c4.713,0,8.533-3.821,8.533-8.533
			S226.579,110.848,221.867,110.848z"/>
		<path d="M469.333,110.848H256c-4.713,0-8.533,3.821-8.533,8.533s3.821,8.533,8.533,8.533h213.333c4.713,0,8.533-3.821,8.533-8.533
			S474.046,110.848,469.333,110.848z"/>
		<path d="M469.333,144.981H256c-4.713,0-8.533,3.82-8.533,8.533c0,4.713,3.821,8.533,8.533,8.533h213.333
			c4.713,0,8.533-3.82,8.533-8.533C477.867,148.801,474.046,144.981,469.333,144.981z"/>
		<path d="M460.8,187.648h-25.6c-9.422,0.009-17.057,7.645-17.067,17.067v25.6c0.009,9.422,7.645,17.057,17.067,17.067h25.6
			c9.422-0.009,17.057-7.645,17.067-17.067v-25.6C477.857,195.292,470.222,187.657,460.8,187.648z M435.2,230.314v-25.6h25.6
			l0.012,25.6H435.2z"/>
		<path d="M110.933,110.848H76.8c-18.842,0.022-34.112,15.291-34.133,34.133v93.867c0,4.713,3.821,8.533,8.533,8.533
			s8.533-3.821,8.533-8.533v-42.667H128v42.667c0,4.713,3.821,8.533,8.533,8.533s8.533-3.821,8.533-8.533v-93.867
			C145.045,126.139,129.776,110.869,110.933,110.848z M59.733,179.114v-34.133c0.009-9.422,7.645-17.057,17.067-17.067h34.133
			c9.422,0.009,17.057,7.645,17.067,17.067v34.133H59.733z"/>
		<path d="M309.7,266.948l-79.3,79.3l-28.1-28.1c-3.338-3.296-8.711-3.279-12.029,0.038c-3.317,3.317-3.334,8.691-0.038,12.029
			l34.133,34.133c1.6,1.601,3.77,2.5,6.033,2.5c2.263,0,4.433-0.899,6.033-2.5l85.333-85.333c3.296-3.338,3.279-8.711-0.038-12.029
			C318.411,263.668,313.038,263.651,309.7,266.948z"/>
	</g>
</g>
<g>
</g>
<g>
</g>
<g>
</g>
<g>
</g>
<g>
</g>
<g>
</g>
<g>
</g>
<g>
</g>
<g>
</g>
<g>
</g>
<g>
</g>
<g>
</g>
<g>
</g>
<g>
</g>
<g>
</g>
</svg>
